<?xml version="1.0" encoding="utf-8"?>
<!DOCTYPE svg PUBLIC "-//W3C//DTD SVG 1.1//EN" "http://www.w3.org/Graphics/SVG/1.1/DTD/svg11.dtd">
<svg version="1.1" id="图形" xmlns="http://www.w3.org/2000/svg" xmlns:xlink="http://www.w3.org/1999/xlink" x="0px" y="0px" width="1024px" height="1024px" viewBox="0 0 1024 1024" enable-background="new 0 0 1024 1024" xml:space="preserve">
  <path fill="#11cd6e" d="M798.525224-201.420037l-573.051471 0c-79.115895 0-143.262868 64.146972-143.262868 143.262868L82.210885 395.508237l95.508237 0 0 71.631434c0 184.627974 149.675928 334.280366 334.280366 334.280366s334.279343-149.651368 334.279343-334.280366l0-71.631434 95.509261 0 0-453.665407C941.788092-137.274088 877.641119-201.420037 798.525224-201.420037zM177.719122 13.474264c0-65.941851 53.444213-119.386064 119.386064-119.386064l429.788603 0c65.918315 0 119.385041 53.444213 119.385041 119.386064l0 286.525736L177.719122 300 177.719122 13.474264zM750.770594 446.550751c0 143.240355-92.244914 259.361049-235.483222 259.361049-133.679605 0-242.058988-108.380406-242.058988-242.058988l0-68.343551 477.543234 0L750.771617 446.550751zM523.937378-10.402539l-23.876804 0c-19.796882 0-35.815717 16.042371-35.815717 35.815717l0 143.262868c0 19.772322 16.018835 35.815717 35.815717 35.815717l23.876804 0c19.796882 0 35.815717-16.043395 35.815717-35.815717l0-143.262868C559.753095 5.639832 543.73426-10.402539 523.937378-10.402539z" transform="translate(0, 812) scale(1, -1)"/>
</svg>
